<svg preserveAspectRatio="none" width="100%" height="100%" overflow="visible" style="display: block;" viewBox="0 0 25.2501 25.2501" fill="none" xmlns="http://www.w3.org/2000/svg">
<path id="Vector" d="M8.71954 0.750203C8.45215 0.850116 8.18919 0.959103 7.93101 1.07678M24.147 17.3766C24.2747 17.1001 24.3925 16.818 24.4999 16.5308M21.3734 21.2061C21.588 21.0057 21.7955 20.7978 21.9952 20.5827M17.336 23.7156C17.5786 23.6241 17.8175 23.5252 18.0525 23.4191M13.4449 24.4926C13.1562 24.5026 12.8656 24.5026 12.5769 24.4926M7.984 23.4257C8.21 23.5273 8.43965 23.6225 8.67268 23.7106M4.09055 20.6512C4.26141 20.8323 4.43772 21.0082 4.61924 21.1787M1.54074 16.5808C1.63434 16.828 1.7357 17.0713 1.84451 17.3106M0.756075 12.6318C0.747963 12.3717 0.747988 12.11 0.756075 11.8495M1.53167 7.92163C1.62362 7.67727 1.72316 7.43662 1.82999 7.19995M4.06989 3.84924C4.25071 3.65663 4.43767 3.46987 4.63049 3.28925" stroke="var(--stroke-0, #141B34)" stroke-width="1.5" stroke-linecap="round" stroke-linejoin="round"/>
</svg>
