<svg preserveAspectRatio="none" width="100%" height="100%" overflow="visible" style="display: block;" viewBox="0 0 23.9998 23.9998" fill="none" xmlns="http://www.w3.org/2000/svg">
<path id="Vector" d="M21.9685 8.21846C23.2321 6.95476 23.5612 5.11032 22.9555 3.54422L21.178 5.32172H18.678V2.82172L20.4555 1.04422C18.8894 0.438559 17.045 0.767571 15.7812 2.03128C14.5171 3.29546 14.1882 5.1408 14.7949 6.70728L6.70728 14.7949C5.14081 14.1882 3.29546 14.5171 2.03128 15.7812C0.767571 17.045 0.438559 18.8894 1.04422 20.4555L2.82172 18.678H5.32172V21.178L3.54422 22.9555C5.11032 23.5612 6.95476 23.2321 8.21846 21.9685C9.4817 20.7052 9.811 18.8617 9.20621 17.296L17.296 9.20621C18.8617 9.811 20.7052 9.4817 21.9685 8.21846Z" stroke="var(--stroke-0, #141B34)" stroke-width="1.5" stroke-linejoin="round"/>
</svg>
