<svg preserveAspectRatio="none" width="100%" height="100%" overflow="visible" style="display: block;" viewBox="0 0 21.5001 18.5001" fill="none" xmlns="http://www.w3.org/2000/svg">
<path id="Vector" d="M11.4473 0.750116H10.0529C9.33828 0.750116 8.98097 0.750116 8.66054 0.862116C8.46486 0.930506 8.281 1.02891 8.11555 1.15379C7.84461 1.35828 7.64642 1.65556 7.25005 2.25012C7.04705 2.55464 6.74782 3.00349 6.62855 3.12883C6.33302 3.43939 5.94551 3.64678 5.52317 3.72041C5.35272 3.75012 5.16972 3.75012 4.80374 3.75012C3.82366 3.75012 3.33364 3.75012 2.93295 3.86354C1.93062 4.14728 1.14721 4.93067 0.863475 5.93301C0.750055 6.33369 0.750055 6.82373 0.750055 7.80382V11.7501C0.750055 14.5785 0.750055 15.9927 1.62873 16.8714C2.50741 17.7501 3.92163 17.7501 6.75005 17.7501H14.7501C17.5785 17.7501 18.9927 17.7501 19.8714 16.8714C20.7501 15.9927 20.7501 14.5785 20.7501 11.7501V7.80382C20.7501 6.82373 20.7501 6.33369 20.6367 5.93301C20.3529 4.93067 19.5695 4.14728 18.5672 3.86354C18.1665 3.75012 17.6765 3.75012 16.6964 3.75012C16.3304 3.75012 16.1474 3.75012 15.977 3.72041C15.5546 3.64678 15.1671 3.43939 14.8716 3.12883C14.7523 3.00348 14.4531 2.55463 14.2501 2.25012C13.8537 1.65556 13.6555 1.35828 13.3846 1.15379C13.2191 1.02891 13.0353 0.930506 12.8396 0.862116C12.5192 0.750116 12.1619 0.750116 11.4473 0.750116Z" stroke="var(--stroke-0, #141B34)" stroke-width="1.5" stroke-linecap="round" stroke-linejoin="round"/>
</svg>
