<svg preserveAspectRatio="none" width="100%" height="100%" overflow="visible" style="display: block;" viewBox="0 0 19.5001 19.5" fill="none" xmlns="http://www.w3.org/2000/svg">
<path id="Vector" d="M1.6409 18.6227L0.750007 18.75L0.877277 17.8591C1.07087 16.504 1.16766 15.8264 1.46833 15.2251C1.769 14.6238 2.25297 14.1398 3.22092 13.1718L14.7327 1.66009C15.1562 1.23654 15.368 1.02476 15.5964 0.91155C16.0311 0.69615 16.5414 0.69615 16.9761 0.91155C17.2046 1.02476 17.4163 1.23654 17.8399 1.66009C18.2635 2.08365 18.4752 2.29543 18.5885 2.52389C18.8039 2.95856 18.8039 3.46889 18.5885 3.90356C18.4752 4.13201 18.2635 4.34379 17.8399 4.76735L6.32817 16.2791C5.36023 17.247 4.87626 17.731 4.27492 18.0317C3.67358 18.3323 2.99601 18.4291 1.6409 18.6227Z" stroke="var(--stroke-0, #141B34)" stroke-width="1.5" stroke-linecap="round" stroke-linejoin="round"/>
</svg>
